<svg width="144" height="40" viewBox="0 0 144 40" fill="none" xmlns="http://www.w3.org/2000/svg">
<path d="M36.2985 2.45898H7.76119C4.43099 2.45898 1.73134 5.14323 1.73134 8.45442V31.5457C1.73134 34.8569 4.43099 37.5412 7.76119 37.5412H36.2985C39.6287 37.5412 42.3284 34.8569 42.3284 31.5457V8.45442C42.3284 5.14323 39.6287 2.45898 36.2985 2.45898Z" fill="#F9C212"/>
<path d="M19.7612 30.0024C22.8657 23.2946 26.0299 16.7056 29.1343 10.0572V9.93848C29.3134 10.0572 38.5075 29.6462 38.6269 29.943C38.5672 29.943 38.5075 29.943 38.4478 29.943C37.4328 29.943 36.4776 29.943 35.4627 29.943C35.2836 29.943 35.2239 29.8243 35.1642 29.7056C34.7463 28.6965 34.2687 27.7467 33.8508 26.7376C33.6119 26.2033 33.3731 25.6691 33.1343 25.1348C33.0746 24.9567 33.0149 24.8974 32.8358 24.8974C30.4478 24.8974 28 24.8974 25.6119 24.8974C25.4328 24.8974 25.3731 24.8974 25.3134 25.0755C24.6567 26.5595 23.9403 28.1029 23.2836 29.5869C23.2239 29.765 23.1045 29.8243 22.9254 29.8243C21.9702 29.8243 21.0746 29.8243 20.1194 29.8243C20.0597 29.8243 19.9403 29.8243 19.8209 29.8243L19.7612 30.0024ZM31.8806 22.4042C31.8806 22.3449 31.8209 22.2261 31.7612 22.1668C31.3433 21.217 30.9254 20.2672 30.4478 19.3175C29.9702 18.3083 29.5522 17.2992 29.2537 16.2307C29.2537 16.2307 29.2537 16.112 29.194 16.0526C29.194 16.1714 29.194 16.2307 29.1343 16.2307C28.9552 16.943 28.7164 17.6554 28.4179 18.3083C27.8209 19.6143 27.2239 20.9202 26.6866 22.1668C26.6866 22.2261 26.6866 22.2855 26.5672 22.4042H31.8806Z" fill="black"/>
<path d="M12 30.0022C12 29.8834 12 29.7647 12 29.7054C12 27.0935 12 24.541 12 21.9291C12 19.3172 12 21.5729 12 21.4542C12 21.2761 12 21.1574 11.8806 21.0387C9.97015 18.0113 8.0597 14.9839 6.20896 11.9565C6.02985 11.6597 5.85075 11.3629 5.61194 11.0067C5.61194 10.9474 5.55224 10.888 5.49254 10.7693C5.61194 10.7693 5.67164 10.7693 5.73134 10.7693C6.68657 10.7693 7.70149 10.7693 8.65672 10.7693C8.77612 10.7693 8.89552 10.7693 8.95522 10.9474C10.2687 13.0844 11.5821 15.2213 12.8955 17.3583C13.1343 17.7739 13.3731 18.1894 13.5522 18.6049C13.5522 18.6643 13.6119 18.7236 13.6716 18.8423C13.6716 18.783 13.7313 18.7236 13.7313 18.6643C13.9701 18.13 14.2687 17.5958 14.5672 17.1209C15.8806 15.1026 17.194 13.025 18.5075 11.0067C18.6269 10.8286 18.7463 10.7693 18.9254 10.7693C19.8209 10.7693 20.7164 10.7693 21.5522 10.7693C21.6119 10.7693 21.7313 10.7693 21.8507 10.7693C21.791 10.888 21.7313 10.9474 21.7313 11.0067C19.9403 13.7967 18.1493 16.5866 16.4179 19.3766C16.0597 19.9702 15.7015 20.5044 15.3433 21.0981C15.2836 21.2168 15.2239 21.3355 15.2239 21.4542C15.2239 24.2442 15.2239 26.9748 15.2239 29.7647V30.0615C15.0448 30.1209 12.2985 30.1209 12.0597 30.0615L12 30.0022Z" fill="black"/>
<path d="M56 20.3858H53.7313V18.6644H57.9701C57.9701 18.7831 57.9701 18.8425 57.9701 18.9612C57.9701 20.9795 57.9701 22.9977 57.9701 25.016C57.9701 25.9064 57.9701 26.7968 57.9701 27.6872C57.9701 27.8653 57.9701 28.1027 57.9104 28.2808C57.791 28.8744 57.2537 29.29 56.6567 29.3493C56.5373 29.3493 56.4179 29.3493 56.2985 29.3493C54.5075 29.3493 52.7164 29.3493 50.9254 29.3493C50.7463 29.3493 50.5672 29.3493 50.3881 29.3493C49.791 29.2306 49.3731 28.6964 49.3134 28.1027C49.3134 27.984 49.3134 27.8059 49.3134 27.6872C49.3134 21.6918 49.3134 15.7557 49.3134 9.76028C49.3134 9.52284 49.3134 9.34475 49.3731 9.10731C49.5522 8.5137 49.9701 8.15754 50.6269 8.03882C50.7463 8.03882 50.8657 8.03882 50.9851 8.03882C52.7761 8.03882 54.5672 8.03882 56.3582 8.03882C56.5373 8.03882 56.7164 8.03882 56.8955 8.03882C57.4925 8.2169 57.9701 8.75115 58.0298 9.34475C58.0298 9.46348 58.0298 9.5822 58.0298 9.64156C58.0298 11.1849 58.0298 12.669 58.0298 14.2123C58.0298 14.2717 58.0298 14.3904 58.0298 14.4498C57.8507 14.4498 56.2985 14.5091 56.0597 14.4498V9.76028C55.8806 9.76028 51.7612 9.70092 51.3433 9.76028C51.3433 15.6964 51.3433 21.5731 51.3433 27.4498C51.3433 27.5091 51.3433 27.5685 51.3433 27.5685H56.0597V20.3265L56 20.3858Z" fill="black"/>
<path d="M140.418 16.1118V8.09814C141.075 8.09814 141.672 8.09814 142.209 8.09814C142.209 8.15751 142.209 8.21687 142.209 8.33559C142.209 15.3402 142.209 22.3447 142.209 29.3493C141.612 29.4086 141.015 29.4086 140.358 29.4086C140.358 29.2899 140.358 29.1712 140.358 29.0525C140.179 29.0525 139.94 29.0525 139.761 29.1118C138.985 29.2306 138.149 29.3493 137.373 29.468C136.06 29.5867 135.164 28.8744 134.746 27.984C134.567 27.5685 134.507 27.1529 134.507 26.7374C134.507 24.1849 134.507 21.6324 134.507 19.0799C134.507 18.1301 134.866 17.3584 135.582 16.7648C136.119 16.3493 136.776 16.1712 137.433 16.1712C138.328 16.1712 139.164 16.1712 140.06 16.1712H140.298L140.418 16.1118ZM140.418 17.8333C140.358 17.8333 140.298 17.8333 140.239 17.8333C139.463 17.8333 138.746 17.8333 137.97 17.8333C137.791 17.8333 137.672 17.8333 137.493 17.8333C137.015 17.952 136.657 18.1895 136.537 18.7237C136.537 18.9018 136.478 19.1392 136.478 19.3767C136.478 21.6918 136.478 24.0068 136.478 26.3219C136.478 26.5 136.478 26.6781 136.478 26.8561C136.597 27.3904 136.955 27.7465 137.493 27.8653C137.672 27.8653 137.851 27.8653 137.97 27.8653C138.687 27.8653 139.463 27.8059 140.179 27.7465C140.179 27.7465 140.239 27.7465 140.298 27.7465V17.8927L140.418 17.8333Z" fill="black"/>
<path d="M96.8358 16.1118H98.6866C98.6866 16.2305 98.6866 16.3492 98.6866 16.4679C98.9254 16.4679 99.1045 16.4679 99.3433 16.4086C100.06 16.2899 100.836 16.2305 101.552 16.1118C102.149 16.0524 102.687 15.9931 103.284 16.0524C104 16.1118 104.418 16.5273 104.478 17.2396C104.478 17.4177 104.478 17.5958 104.478 17.7739C104.478 20.6232 104.478 23.4725 104.478 26.3812C104.478 26.678 104.478 27.0342 104.358 27.331C104.06 28.4588 103.104 29.2899 101.91 29.4086C101.731 29.4086 101.552 29.4086 101.433 29.4086C100.597 29.4086 99.7612 29.4086 98.8657 29.4086H98.6269V34.3949C97.9702 34.3949 97.3731 34.3949 96.7761 34.3949C96.7164 34.2168 96.7164 16.2899 96.7761 16.1118H96.8358ZM98.7463 27.7465H98.8657C99.6418 27.7465 100.418 27.7465 101.194 27.7465C101.313 27.7465 101.493 27.7465 101.612 27.7465C102.149 27.6871 102.507 27.331 102.627 26.8561C102.627 26.678 102.687 26.4999 102.687 26.2625C102.687 23.5319 102.687 20.8013 102.687 18.0113C102.687 17.952 102.687 17.8926 102.687 17.8332C101.373 17.8332 100.119 17.8926 98.806 17.952V27.7465H98.7463Z" fill="black"/>
<path d="M80.7164 22.8195C80.7164 24.4816 80.7164 26.1437 80.7164 27.7465C80.7164 27.9839 80.7164 28.162 80.6567 28.3995C80.5373 28.9931 80.1194 29.2899 79.5224 29.4086C79.3433 29.4086 79.1642 29.4086 79.0448 29.4086C77.5522 29.4086 76.1194 29.4086 74.6269 29.4086C74.5075 29.4086 74.3284 29.4086 74.209 29.4086C73.5522 29.3492 73.0746 28.9337 73.0149 28.2214C73.0149 28.0433 73.0149 27.8652 73.0149 27.6871C73.0149 24.4223 73.0149 21.1574 73.0149 17.8332C73.0149 17.5958 73.0149 17.3584 73.0746 17.1209C73.194 16.5273 73.6119 16.2305 74.1492 16.1711C74.3284 16.1711 74.5075 16.1711 74.6269 16.1711C76.1194 16.1711 77.5522 16.1711 79.0448 16.1711C79.2239 16.1711 79.3433 16.1711 79.5224 16.1711C80.1791 16.2305 80.597 16.646 80.7164 17.299C80.7164 17.4771 80.7164 17.6552 80.7164 17.8332C80.7164 19.4953 80.7164 21.1574 80.7164 22.7602V22.8195ZM74.9254 27.7465C75.2239 27.7465 78.6866 27.7465 78.806 27.7465C78.806 24.4223 78.806 21.2168 78.806 17.952C78.806 17.8926 78.806 17.8332 78.806 17.8332C77.4925 17.8332 76.2388 17.8332 74.9254 17.8332V27.7465Z" fill="black"/>
<path d="M86.8657 27.7465C88.1791 27.7465 89.4328 27.6871 90.806 27.6278C90.806 26.9748 90.806 26.3218 90.806 25.7282C90.806 25.0753 90.806 24.4817 90.806 23.8287V18.0707C90.806 17.4177 90.806 16.8241 90.806 16.1712C90.9851 16.1712 92.4179 16.1118 92.6567 16.1712V29.4086C92.4776 29.4086 91.0448 29.4086 90.806 29.4086C90.806 29.2899 90.806 29.2305 90.806 29.1118H90.6866C89.8507 29.2305 88.9552 29.3492 88.1194 29.4086C87.5821 29.4086 87.1045 29.468 86.5672 29.5273C86.3881 29.5273 86.209 29.5273 86.0896 29.5273C85.4925 29.4086 85.1343 28.9931 85.0746 28.3401C85.0746 28.162 85.0746 27.9839 85.0746 27.8059C85.0746 24.0068 85.0746 20.2077 85.0746 16.4086V16.1712C85.2537 16.1712 86.6866 16.1118 86.9254 16.1712V16.2305V16.2899C86.9254 20.0296 86.9254 23.8287 86.9254 27.5684V27.6278L86.8657 27.7465Z" fill="black"/>
<path d="M117.672 27.6872H122.567V29.4086C122.388 29.4086 115.881 29.4086 115.701 29.4086V8.09814C115.881 8.09814 117.433 8.09814 117.672 8.09814C117.672 8.69175 117.672 9.28536 117.672 9.87897C117.672 10.4726 117.672 11.0662 117.672 11.6598V27.6872Z" fill="black"/>
<path d="M128.776 27.7465H131.045C131.045 27.9246 131.104 29.1118 131.045 29.4086C131.045 29.4086 130.925 29.4086 130.866 29.4086C130.03 29.4086 129.254 29.4086 128.418 29.4086C128.239 29.4086 128.06 29.4086 127.821 29.3492C127.343 29.2305 127.045 28.9337 126.925 28.5182C126.866 28.2807 126.806 28.0433 126.806 27.8058C126.806 26.1437 126.806 24.541 126.806 22.8789C126.806 21.2762 126.806 19.6734 126.806 18.0707V17.7739C126.627 17.7739 126.448 17.7739 126.269 17.7739C126.09 17.7739 125.91 17.7739 125.731 17.7739H125.194V16.1118H126.746C126.746 15.3994 126.746 14.7465 126.746 14.0341C126.746 13.3812 126.746 12.6689 126.746 12.0159C126.925 12.0159 128.358 11.9565 128.597 12.0159C128.597 12.2533 128.597 12.5501 128.597 12.7876C128.597 13.0844 128.597 13.3218 128.597 13.6186V16.1118H130.866C130.866 16.2899 130.866 17.5364 130.866 17.7739H128.597V27.7465H128.776Z" fill="black"/>
<path d="M67.5821 17.8333C66.5075 17.8333 65.4328 17.8926 64.2985 17.952C64.2985 18.0707 64.2985 18.1301 64.2985 18.2488C64.2985 21.8698 64.2985 25.4908 64.2985 29.1118C64.2985 29.2305 64.2985 29.2899 64.2985 29.4086H62.4478C62.4478 29.2305 62.4478 16.4086 62.4478 16.1712C62.5672 16.1712 64 16.1118 64.2985 16.1712C64.2985 16.2899 64.2985 16.4086 64.2985 16.5273C64.597 16.5273 64.8955 16.468 65.194 16.4086C66.0298 16.2899 66.806 16.1118 67.6418 16.1118C67.8209 16.1118 68.0597 16.1118 68.2388 16.1118C68.8955 16.1712 69.3134 16.5867 69.4328 17.2397C69.4328 17.4178 69.4328 17.5958 69.4328 17.7739C69.4328 18.6643 69.4328 19.4954 69.4328 20.3858C69.4328 20.4452 69.4328 20.5639 69.4328 20.6232C69.2537 20.6232 67.8209 20.6826 67.5821 20.6232C67.5821 20.3858 67.5821 20.2077 67.5821 19.9703C67.5821 19.7328 67.5821 19.5547 67.5821 19.3173V17.952V17.8333Z" fill="black"/>
</svg>
