<svg width="236" height="65" viewBox="0 0 236 65" fill="none" xmlns="http://www.w3.org/2000/svg">
<path d="M59.4891 3.5874H12.7197C7.26184 3.5874 2.8374 8.01184 2.8374 13.4697V51.531C2.8374 56.9888 7.26184 61.4133 12.7197 61.4133H59.4891C64.947 61.4133 69.3714 56.9888 69.3714 51.531V13.4697C69.3714 8.01184 64.947 3.5874 59.4891 3.5874Z" fill="#F9C212"/>
<path d="M32.3865 48.9868C37.4744 37.9305 42.6601 27.0698 47.748 16.1112V15.9155C48.0415 16.1112 63.1095 48.3998 63.3052 48.889C63.2074 48.889 63.1095 48.889 63.0117 48.889C61.3483 48.889 59.7828 48.889 58.1195 48.889C57.8259 48.889 57.7281 48.6933 57.6303 48.4976C56.9454 46.8343 56.1626 45.2688 55.4777 43.6054C55.0863 42.7248 54.6949 41.8442 54.3036 40.9636C54.2057 40.6701 54.1079 40.5722 53.8143 40.5722C49.9006 40.5722 45.889 40.5722 41.9752 40.5722C41.6817 40.5722 41.5838 40.5722 41.486 40.8658C40.4097 43.3119 39.2356 45.8558 38.1593 48.3019C38.0614 48.5955 37.8657 48.6933 37.5722 48.6933C36.0067 48.6933 34.539 48.6933 32.9735 48.6933C32.8757 48.6933 32.68 48.6933 32.4843 48.6933L32.3865 48.9868ZM52.2488 36.4628C52.2488 36.365 52.151 36.1693 52.0531 36.0714C51.3682 34.5059 50.6833 32.9404 49.9006 31.3749C49.1178 29.7115 48.4329 28.0482 47.9437 26.287C47.9437 26.287 47.9437 26.0913 47.8458 25.9935C47.8458 26.1892 47.8458 26.287 47.748 26.287C47.4545 27.4611 47.0631 28.6353 46.5739 29.7115C45.5954 31.8641 44.617 34.0167 43.7364 36.0714C43.7364 36.1693 43.7364 36.2671 43.5407 36.4628H52.2488Z" fill="white"/>
<path d="M19.6667 48.9871C19.6667 48.7915 19.6667 48.5958 19.6667 48.4979C19.6667 44.1928 19.6667 39.9855 19.6667 35.6803C19.6667 31.3752 19.6667 35.0933 19.6667 34.8976C19.6667 34.6041 19.6667 34.4084 19.471 34.2127C16.34 29.2226 13.209 24.2326 10.1758 19.2425C9.88231 18.7533 9.58877 18.2641 9.1974 17.677C9.1974 17.5792 9.09955 17.4813 9.00171 17.2856C9.1974 17.2856 9.29524 17.2856 9.39309 17.2856C10.9586 17.2856 12.6219 17.2856 14.1874 17.2856C14.3831 17.2856 14.5788 17.2856 14.6767 17.5792C16.8292 21.1016 18.9818 24.624 21.1344 28.1463C21.5258 28.8313 21.9171 29.5162 22.2107 30.2011C22.2107 30.2989 22.3085 30.3968 22.4064 30.5924C22.4064 30.4946 22.5042 30.3968 22.5042 30.2989C22.8956 29.4183 23.3848 28.5377 23.874 27.755C26.0266 24.4283 28.1792 21.0037 30.3317 17.677C30.5274 17.3835 30.7231 17.2856 31.0166 17.2856C32.4843 17.2856 33.952 17.2856 35.3218 17.2856C35.4196 17.2856 35.6153 17.2856 35.811 17.2856C35.7132 17.4813 35.6153 17.5792 35.6153 17.677C32.68 22.2757 29.7447 26.8744 26.9072 31.473C26.3201 32.4515 25.7331 33.3321 25.146 34.3105C25.0481 34.5062 24.9503 34.7019 24.9503 34.8976C24.9503 39.4963 24.9503 43.9971 24.9503 48.5958V49.085C24.6568 49.1828 20.1559 49.1828 19.7646 49.085L19.6667 48.9871Z" fill="white"/>
<path d="M91.7779 33.1362H88.0598V30.2988H95.0067C95.0067 30.4945 95.0067 30.5923 95.0067 30.788C95.0067 34.1147 95.0067 37.4414 95.0067 40.7681C95.0067 42.2357 95.0067 43.7034 95.0067 45.1711C95.0067 45.4646 95.0067 45.856 94.9089 46.1495C94.7132 47.128 93.8326 47.8129 92.8542 47.9107C92.6585 47.9107 92.4628 47.9107 92.2671 47.9107C89.3318 47.9107 86.3965 47.9107 83.4611 47.9107C83.1676 47.9107 82.8741 47.9107 82.5805 47.9107C81.6021 47.715 80.9172 46.8344 80.8193 45.856C80.8193 45.6603 80.8193 45.3668 80.8193 45.1711C80.8193 35.2888 80.8193 25.5044 80.8193 15.6221C80.8193 15.2308 80.8193 14.9372 80.9172 14.5459C81.2107 13.5674 81.8956 12.9804 82.9719 12.7847C83.1676 12.7847 83.3633 12.7847 83.559 12.7847C86.4943 12.7847 89.4296 12.7847 92.3649 12.7847C92.6585 12.7847 92.952 12.7847 93.2455 12.7847C94.224 13.0782 95.0067 13.9588 95.1046 14.9372C95.1046 15.1329 95.1046 15.3286 95.1046 15.4265C95.1046 17.9704 95.1046 20.4165 95.1046 22.9605C95.1046 23.0583 95.1046 23.254 95.1046 23.3518C94.811 23.3518 92.2671 23.4497 91.8757 23.3518V15.6221C91.5822 15.6221 84.8309 15.5243 84.146 15.6221C84.146 25.4066 84.146 35.0931 84.146 44.7797C84.146 44.8775 84.146 44.9754 84.146 44.9754H91.8757V33.0384L91.7779 33.1362Z" fill="white"/>
<path d="M230.129 26.0913V12.8823C231.206 12.8823 232.184 12.8823 233.065 12.8823C233.065 12.9802 233.065 13.078 233.065 13.2737C233.065 24.8193 233.065 36.3649 233.065 47.9105C232.086 48.0084 231.108 48.0084 230.032 48.0084C230.032 47.8127 230.032 47.617 230.032 47.4213C229.738 47.4213 229.347 47.4213 229.053 47.5191C227.781 47.7148 226.411 47.9105 225.139 48.1062C222.987 48.3019 221.519 47.1278 220.834 45.6601C220.541 44.9752 220.443 44.2903 220.443 43.6054C220.443 39.3981 220.443 35.1908 220.443 30.9835C220.443 29.418 221.03 28.146 222.204 27.1676C223.085 26.4827 224.161 26.1891 225.237 26.1891C226.705 26.1891 228.075 26.1891 229.542 26.1891H229.934L230.129 26.0913ZM230.129 28.9288C230.032 28.9288 229.934 28.9288 229.836 28.9288C228.564 28.9288 227.39 28.9288 226.118 28.9288C225.824 28.9288 225.629 28.9288 225.335 28.9288C224.552 29.1244 223.965 29.5158 223.77 30.3964C223.77 30.69 223.672 31.0813 223.672 31.4727C223.672 35.2886 223.672 39.1045 223.672 42.9205C223.672 43.214 223.672 43.5075 223.672 43.8011C223.867 44.6817 224.454 45.2687 225.335 45.4644C225.629 45.4644 225.922 45.4644 226.118 45.4644C227.292 45.4644 228.564 45.3666 229.738 45.2687C229.738 45.2687 229.836 45.2687 229.934 45.2687V29.0266L230.129 28.9288Z" fill="white"/>
<path d="M158.703 26.0915H161.736C161.736 26.2872 161.736 26.4829 161.736 26.6786C162.128 26.6786 162.421 26.6786 162.813 26.5807C163.987 26.385 165.259 26.2872 166.433 26.0915C167.411 25.9937 168.292 25.8958 169.27 25.9937C170.444 26.0915 171.129 26.7764 171.227 27.9505C171.227 28.2441 171.227 28.5376 171.227 28.8311C171.227 33.5277 171.227 38.2242 171.227 43.0185C171.227 43.5077 171.227 44.0948 171.032 44.584C170.542 46.4431 168.977 47.8129 167.02 48.0086C166.726 48.0086 166.433 48.0086 166.237 48.0086C164.867 48.0086 163.498 48.0086 162.03 48.0086H161.639V56.2275C160.562 56.2275 159.584 56.2275 158.605 56.2275C158.508 55.934 158.508 26.385 158.605 26.0915H158.703ZM161.834 45.2689H162.03C163.302 45.2689 164.574 45.2689 165.846 45.2689C166.042 45.2689 166.335 45.2689 166.531 45.2689C167.411 45.1711 167.998 44.584 168.194 43.8013C168.194 43.5078 168.292 43.2142 168.292 42.8228C168.292 38.322 168.292 33.8212 168.292 29.2225C168.292 29.1247 168.292 29.0268 168.292 28.929C166.139 28.929 164.085 29.0268 161.932 29.1247V45.2689H161.834Z" fill="white"/>
<path d="M132.285 37.148C132.285 39.8876 132.285 42.6273 132.285 45.2691C132.285 45.6604 132.285 45.954 132.187 46.3453C131.992 47.3238 131.307 47.813 130.328 48.0087C130.035 48.0087 129.741 48.0087 129.546 48.0087C127.099 48.0087 124.751 48.0087 122.305 48.0087C122.109 48.0087 121.816 48.0087 121.62 48.0087C120.544 47.9109 119.761 47.2259 119.663 46.0518C119.663 45.7583 119.663 45.4647 119.663 45.1712C119.663 39.7898 119.663 34.4084 119.663 28.9291C119.663 28.5377 119.663 28.1463 119.761 27.755C119.957 26.7765 120.642 26.2873 121.522 26.1895C121.816 26.1895 122.109 26.1895 122.305 26.1895C124.751 26.1895 127.099 26.1895 129.546 26.1895C129.839 26.1895 130.035 26.1895 130.328 26.1895C131.405 26.2873 132.09 26.9722 132.285 28.0485C132.285 28.342 132.285 28.6356 132.285 28.9291C132.285 31.6687 132.285 34.4084 132.285 37.0502V37.148ZM122.794 45.2691C123.284 45.2691 128.959 45.2691 129.154 45.2691C129.154 39.7898 129.154 34.5062 129.154 29.1248C129.154 29.0269 129.154 28.9291 129.154 28.9291C127.002 28.9291 124.947 28.9291 122.794 28.9291V45.2691Z" fill="white"/>
<path d="M142.363 45.2691C144.516 45.2691 146.571 45.1712 148.821 45.0734C148.821 43.9971 148.821 42.9208 148.821 41.9424C148.821 40.8661 148.821 39.8877 148.821 38.8114V29.3205C148.821 28.2442 148.821 27.2658 148.821 26.1895C149.115 26.1895 151.463 26.0916 151.854 26.1895V48.0087C151.561 48.0087 149.212 48.0087 148.821 48.0087C148.821 47.813 148.821 47.7152 148.821 47.5195H148.625C147.256 47.7152 145.788 47.9109 144.418 48.0087C143.537 48.0087 142.755 48.1066 141.874 48.2044C141.581 48.2044 141.287 48.2044 141.091 48.2044C140.113 48.0087 139.526 47.3238 139.428 46.2475C139.428 45.954 139.428 45.6605 139.428 45.3669C139.428 39.1049 139.428 32.8429 139.428 26.5809V26.1895C139.722 26.1895 142.07 26.0916 142.461 26.1895V26.2873V26.3852C142.461 32.5494 142.461 38.8114 142.461 44.9756V45.0734L142.363 45.2691Z" fill="white"/>
<path d="M192.851 45.1709H200.874V48.0084C200.58 48.0084 189.915 48.0084 189.622 48.0084V12.8823C189.915 12.8823 192.459 12.8823 192.851 12.8823C192.851 13.8608 192.851 14.8392 192.851 15.8176C192.851 16.7961 192.851 17.7745 192.851 18.753V45.1709Z" fill="white"/>
<path d="M211.05 45.2691H214.768C214.768 45.5626 214.866 47.5195 214.768 48.0087C214.768 48.0087 214.572 48.0087 214.474 48.0087C213.105 48.0087 211.833 48.0087 210.463 48.0087C210.169 48.0087 209.876 48.0087 209.484 47.9108C208.702 47.7152 208.212 47.2259 208.017 46.541C207.919 46.1497 207.821 45.7583 207.821 45.3669C207.821 42.6273 207.821 39.9855 207.821 37.2458C207.821 34.604 207.821 31.9623 207.821 29.3205V28.8312C207.527 28.8312 207.234 28.8312 206.94 28.8312C206.647 28.8312 206.353 28.8312 206.06 28.8312H205.179V26.0916H207.723C207.723 24.9175 207.723 23.8412 207.723 22.6671C207.723 21.5908 207.723 20.4166 207.723 19.3404C208.017 19.3404 210.365 19.2425 210.756 19.3404C210.756 19.7317 210.756 20.221 210.756 20.6123C210.756 21.1016 210.756 21.4929 210.756 21.9822V26.0916H214.474C214.474 26.3851 214.474 28.4399 214.474 28.8312H210.756V45.2691H211.05Z" fill="white"/>
<path d="M110.76 28.9288C108.998 28.9288 107.237 29.0266 105.378 29.1245C105.378 29.3202 105.378 29.418 105.378 29.6137C105.378 35.5822 105.378 41.5507 105.378 47.5192C105.378 47.7149 105.378 47.8127 105.378 48.0084H102.345C102.345 47.7149 102.345 26.5805 102.345 26.1892C102.541 26.1892 104.889 26.0913 105.378 26.1892C105.378 26.3848 105.378 26.5805 105.378 26.7762C105.867 26.7762 106.357 26.6784 106.846 26.5805C108.216 26.3848 109.488 26.0913 110.857 26.0913C111.151 26.0913 111.542 26.0913 111.836 26.0913C112.912 26.1892 113.597 26.8741 113.793 27.9503C113.793 28.2439 113.793 28.5374 113.793 28.8309C113.793 30.2986 113.793 31.6684 113.793 33.1361C113.793 33.2339 113.793 33.4296 113.793 33.5275C113.499 33.5275 111.151 33.6253 110.76 33.5275C110.76 33.1361 110.76 32.8426 110.76 32.4512C110.76 32.0598 110.76 31.7663 110.76 31.3749V29.1245V28.9288Z" fill="white"/>
</svg>
